<svg xmlns="http://www.w3.org/2000/svg" xmlns:xlink="http://www.w3.org/1999/xlink" width="500" zoomAndPan="magnify" viewBox="0 0 375 374.999991" height="500" preserveAspectRatio="xMidYMid meet" version="1.2"><defs><clipPath id="b20d73352b"><path d="M 0 1.171875 L 375 1.171875 L 375 373.921875 L 0 373.921875 Z M 0 1.171875 "/></clipPath></defs><g id="ba2debfccb"><g clip-rule="nonzero" clip-path="url(#b20d73352b)"><path style=" stroke:none;fill-rule:nonzero;fill:#4a99e9;fill-opacity:1;" d="M 238.117188 187.214844 L 374.527344 1.140625 L 359.972656 1.140625 L 86.789062 373.785156 L 101.34375 373.785156 L 187.503906 256.257812 L 273.648438 373.785156 L 374.867188 373.785156 Z M 192.644531 130.890625 L 194.738281 128.035156 L 101.730469 1.140625 L 0.511719 1.140625 L 136.902344 187.21875 L 0.132812 373.785156 L 14.6875 373.785156 L 192.714844 130.941406 Z M 192.644531 130.890625 "/></g><g style="fill:#ffffff;fill-opacity:1;"><g transform="translate(-2.436403, 254.260596)"><path style="stroke:none" d="M 22.40625 -96.515625 C 16.769531 -96.515625 12.203125 -98.265625 8.703125 -101.765625 C 5.203125 -105.273438 3.453125 -109.847656 3.453125 -115.484375 C 3.453125 -121.222656 5.203125 -125.816406 8.703125 -129.265625 C 12.203125 -132.710938 16.769531 -134.4375 22.40625 -134.4375 L 84.453125 -134.4375 C 90.203125 -134.4375 94.796875 -132.710938 98.234375 -129.265625 C 101.679688 -125.816406 103.40625 -121.222656 103.40625 -115.484375 C 103.40625 -109.847656 101.679688 -105.273438 98.234375 -101.765625 C 94.796875 -98.265625 90.203125 -96.515625 84.453125 -96.515625 L 73.25 -96.515625 L 73.25 -19.828125 C 73.25 -13.847656 71.4375 -9.046875 67.8125 -5.421875 C 64.195312 -1.804688 59.40625 0 53.4375 0 C 47.457031 0 42.65625 -1.804688 39.03125 -5.421875 C 35.414062 -9.046875 33.609375 -13.847656 33.609375 -19.828125 L 33.609375 -96.515625 Z M 22.40625 -96.515625 "/></g></g><g style="fill:#ffffff;fill-opacity:1;"><g transform="translate(104.424472, 254.260596)"><path style="stroke:none" d="M 142.1875 -134.4375 C 148.164062 -134.4375 152.960938 -132.625 156.578125 -129 C 160.203125 -125.382812 162.015625 -120.585938 162.015625 -114.609375 L 162.015625 -37.921875 C 162.015625 -30.453125 160.375 -23.84375 157.09375 -18.09375 C 153.820312 -12.351562 149.171875 -7.898438 143.140625 -4.734375 C 137.109375 -1.578125 130.1875 0 122.375 0 L 48.265625 0 C 40.453125 0 33.523438 -1.578125 27.484375 -4.734375 C 21.453125 -7.898438 16.800781 -12.351562 13.53125 -18.09375 C 10.257812 -23.84375 8.625 -30.453125 8.625 -37.921875 L 8.625 -114.609375 C 8.625 -120.585938 10.429688 -125.382812 14.046875 -129 C 17.660156 -132.625 22.457031 -134.4375 28.4375 -134.4375 C 34.414062 -134.4375 39.210938 -132.625 42.828125 -129 C 46.453125 -125.382812 48.265625 -120.585938 48.265625 -114.609375 L 48.265625 -37.921875 L 65.5 -37.921875 L 65.5 -114.609375 C 65.5 -120.585938 67.304688 -125.382812 70.921875 -129 C 74.546875 -132.625 79.34375 -134.4375 85.3125 -134.4375 C 91.289062 -134.4375 96.085938 -132.625 99.703125 -129 C 103.328125 -125.382812 105.140625 -120.585938 105.140625 -114.609375 L 105.140625 -37.921875 L 122.375 -37.921875 L 122.375 -114.609375 C 122.375 -120.585938 124.179688 -125.382812 127.796875 -129 C 131.421875 -132.625 136.21875 -134.4375 142.1875 -134.4375 Z M 142.1875 -134.4375 "/></g></g><g style="fill:#ffffff;fill-opacity:1;"><g transform="translate(275.057163, 254.260596)"><path style="stroke:none" d="M 79.28125 -37.921875 C 85.03125 -37.921875 89.628906 -36.195312 93.078125 -32.75 C 96.523438 -29.300781 98.25 -24.703125 98.25 -18.953125 C 98.25 -13.328125 96.523438 -8.757812 93.078125 -5.25 C 89.628906 -1.75 85.03125 0 79.28125 0 L 28.4375 0 C 22.457031 0 17.660156 -1.75 14.046875 -5.25 C 10.429688 -8.757812 8.625 -13.328125 8.625 -18.953125 L 8.625 -115.484375 C 8.625 -121.222656 10.429688 -125.816406 14.046875 -129.265625 C 17.660156 -132.710938 22.457031 -134.4375 28.4375 -134.4375 L 79.28125 -134.4375 C 85.03125 -134.4375 89.628906 -132.710938 93.078125 -129.265625 C 96.523438 -125.816406 98.25 -121.222656 98.25 -115.484375 C 98.25 -109.847656 96.523438 -105.273438 93.078125 -101.765625 C 89.628906 -98.265625 85.03125 -96.515625 79.28125 -96.515625 L 48.265625 -96.515625 L 48.265625 -86.171875 L 79.28125 -86.171875 C 85.03125 -86.171875 89.628906 -84.445312 93.078125 -81 C 96.523438 -77.5625 98.25 -72.96875 98.25 -67.21875 C 98.25 -61.582031 96.523438 -57.015625 93.078125 -53.515625 C 89.628906 -50.015625 85.03125 -48.265625 79.28125 -48.265625 L 48.265625 -48.265625 L 48.265625 -37.921875 Z M 79.28125 -37.921875 "/></g></g></g></svg>