<svg xmlns="http://www.w3.org/2000/svg" xmlns:xlink="http://www.w3.org/1999/xlink" width="500" zoomAndPan="magnify" viewBox="0 0 375 374.999991" height="500" preserveAspectRatio="xMidYMid meet" version="1.2"><defs/><g id="2b3d665d2d"><path style=" stroke:none;fill-rule:nonzero;fill:#4a99e9;fill-opacity:1;" d="M 238.367188 187.164062 L 375.597656 -0.03125 L 360.957031 -0.03125 L 86.132812 374.851562 L 100.773438 374.851562 L 187.449219 256.617188 L 274.113281 374.851562 L 375.941406 374.851562 Z M 192.621094 130.5 L 194.730469 127.625 L 101.164062 -0.03125 L -0.664062 -0.03125 L 136.542969 187.167969 L -1.046875 374.851562 L 13.59375 374.851562 L 192.691406 130.550781 Z M 192.621094 130.5 "/><g style="fill:#ffffff;fill-opacity:1;"><g transform="translate(83.974695, 311.5881)"><path style="stroke:none" d="M 43.40625 -186.96875 C 32.5 -186.96875 23.648438 -190.363281 16.859375 -197.15625 C 10.066406 -203.945312 6.671875 -212.796875 6.671875 -223.703125 C 6.671875 -234.828125 10.066406 -243.726562 16.859375 -250.40625 C 23.648438 -257.082031 32.5 -260.421875 43.40625 -260.421875 L 163.609375 -260.421875 C 174.734375 -260.421875 183.632812 -257.082031 190.3125 -250.40625 C 196.988281 -243.726562 200.328125 -234.828125 200.328125 -223.703125 C 200.328125 -212.796875 196.988281 -203.945312 190.3125 -197.15625 C 183.632812 -190.363281 174.734375 -186.96875 163.609375 -186.96875 L 141.90625 -186.96875 L 141.90625 -38.390625 C 141.90625 -26.816406 138.394531 -17.523438 131.375 -10.515625 C 124.363281 -3.503906 115.070312 0 103.5 0 C 91.925781 0 82.632812 -3.503906 75.625 -10.515625 C 68.613281 -17.523438 65.109375 -26.816406 65.109375 -38.390625 L 65.109375 -186.96875 Z M 43.40625 -186.96875 "/></g></g></g></svg>